<svg width="14" height="12" viewBox="0 0 14 12" fill="none" xmlns="http://www.w3.org/2000/svg">
<path d="M14 2.74809V5.08445C13.9082 5.45832 13.7047 5.80169 13.4041 6.08021C12.9813 6.47142 12.4178 6.68704 11.8182 6.68704H8.0486V5.97574C8.0486 5.67516 7.79345 5.42924 7.48167 5.42924H6.51826C6.20662 5.42924 5.95154 5.67522 5.95154 5.97574V6.68704H2.18169C1.58214 6.68704 1.01878 6.47142 0.59584 6.08021C0.29498 5.8021 0.09184 5.45846 0 5.08472V2.74809C0 2.24445 0.4277 1.83211 0.95018 1.83211H13.05C13.5724 1.83211 14 2.24445 14 2.74809ZM7.48174 7.94477C7.53165 7.94477 7.5733 7.90455 7.5733 7.8565V7.14507V6.68704V5.97574C7.5733 5.92769 7.53165 5.8872 7.48174 5.8872H6.51826C6.46856 5.8872 6.42642 5.92769 6.42642 5.97574V6.68704V7.14507V7.8565C6.42642 7.90455 6.46856 7.94477 6.51826 7.94477H7.48174ZM13.7333 6.41055C13.2212 6.8841 12.5415 7.14513 11.8182 7.14513H8.0486V7.85657C8.0486 8.15675 7.79345 8.40287 7.48167 8.40287H6.51826C6.20662 8.40287 5.95154 8.15681 5.95154 7.85657V7.14513H2.18169C1.45859 7.14513 0.77875 6.8841 0.2667 6.41055C0.1694 6.32046 0.08036 6.22483 0 6.12448V11.0839C0 11.588 0.4277 12 0.95018 12H13.05C13.5724 12 14 11.588 14 11.0839V6.12448C13.9195 6.22483 13.8308 6.32046 13.7333 6.41055ZM9.19072 0.268391C9.00508 0.0894188 8.76183 0 8.51879 0H5.48149C5.23831 0 4.99492 0.0894188 4.80942 0.268391C4.62406 0.447229 4.53124 0.681675 4.53124 0.916053V1.37408H5.33869V0.916053C5.33869 0.890071 5.34604 0.852077 5.38069 0.818874C5.41499 0.785671 5.45433 0.77845 5.48149 0.77845H8.51886C8.5456 0.77845 8.58508 0.785671 8.61945 0.818874C8.65403 0.852077 8.66138 0.890071 8.66138 0.916053V1.37408H9.46883V0.916053C9.46876 0.681675 9.37608 0.447296 9.19072 0.268391Z" fill="#81898E"/>
</svg>
