<svg width="13" height="13" viewBox="0 0 13 13" fill="none" xmlns="http://www.w3.org/2000/svg">
<path fill-rule="evenodd" clip-rule="evenodd" d="M11.7 3.9V1.95H10.4V2.6H9.1V1.95H3.9V2.6H2.6V1.95H1.3V3.9H11.7ZM11.7 5.2H1.3V11.7H11.7V5.2ZM10.4 0.65H11.7C12.418 0.65 13 1.23203 13 1.95V11.7C13 12.418 12.418 13 11.7 13H1.3C0.58203 13 0 12.418 0 11.7V1.95C0 1.23203 0.58203 0.65 1.3 0.65H2.6V0H3.9V0.65H9.1V0H10.4V0.65ZM5.85 8.83076L8.64038 6.04038L9.55962 6.95962L5.85 10.6692L3.44038 8.25962L4.35962 7.34038L5.85 8.83076Z" fill="#616668"/>
</svg>
