<svg width="36" height="36" viewBox="0 0 36 36" fill="none" xmlns="http://www.w3.org/2000/svg">
<path d="M18 18C24.8345 18 30.375 14.9779 30.375 11.25C30.375 7.52208 24.8345 4.5 18 4.5C11.1655 4.5 5.625 7.52208 5.625 11.25C5.625 14.9779 11.1655 18 18 18Z" stroke="#3980EA" stroke-width="2" stroke-linecap="round" stroke-linejoin="round"/>
<path d="M5.625 11.25V18C5.625 21.7279 11.1655 24.75 18 24.75C24.8345 24.75 30.375 21.7279 30.375 18V11.25" stroke="#3980EA" stroke-width="2" stroke-linecap="round" stroke-linejoin="round"/>
<path d="M5.625 18V24.75C5.625 28.4779 11.1655 31.5 18 31.5C24.8345 31.5 30.375 28.4779 30.375 24.75V18" stroke="#3980EA" stroke-width="2" stroke-linecap="round" stroke-linejoin="round"/>
</svg>
