<svg width="7" height="12" viewBox="0 0 7 12" fill="none" xmlns="http://www.w3.org/2000/svg">
<path d="M3.76976 5.26667C2.20962 4.87333 1.7079 4.47 1.7079 3.83667C1.7079 3.11 2.39863 2.6 3.56357 2.6C4.78694 2.6 5.24055 3.16667 5.28179 4H6.80069C6.75601 2.85 6.03093 1.80333 4.5945 1.46V0H2.53265V1.44C1.19931 1.72333 0.127148 2.55667 0.127148 3.84667C0.127148 5.38667 1.4433 6.15333 3.35739 6.6C5.07904 7 5.41924 7.58333 5.41924 8.21C5.41924 8.66667 5.08591 9.4 3.56357 9.4C2.14777 9.4 1.58763 8.78333 1.51546 8H0C0.0859107 9.46 1.20962 10.2767 2.53265 10.5533V12H4.5945V10.5667C5.93127 10.3167 7 9.56667 7 8.19667C7 6.31 5.3299 5.66333 3.76976 5.26667Z" fill="#81898E"/>
</svg>
