<svg width="25" height="25" viewBox="0 0 25 25" fill="none" xmlns="http://www.w3.org/2000/svg">
<path d="M21.6797 7.34375L20.9375 6.60156L14.0625 13.4766C13.2031 14.3359 11.7578 14.3359 10.8984 13.4766L4.02344 6.64063L3.28125 7.38281L8.39844 12.5L3.28125 17.6172L4.02344 18.3594L9.14062 13.2422L10.1562 14.2578C10.7812 14.8828 11.6016 15.2344 12.4609 15.2344C13.3203 15.2344 14.1406 14.8828 14.7656 14.2578L15.7812 13.2422L20.8984 18.3594L21.6406 17.6172L16.5234 12.5L21.6797 7.34375Z" fill="#0C3A86"/>
<path d="M20.2344 19.6875H4.80469C3.90625 19.6875 3.16406 18.9453 3.16406 18.0469V7.03125C3.16406 6.13281 3.90625 5.39062 4.80469 5.39062H20.2344C21.1328 5.39062 21.875 6.13281 21.875 7.03125V18.0469C21.875 18.9453 21.1328 19.6875 20.2344 19.6875ZM4.76562 6.44531C4.45312 6.44531 4.21875 6.67968 4.21875 6.99218V18.0078C4.21875 18.3203 4.45312 18.5547 4.76562 18.5547H20.1953C20.5078 18.5547 20.7422 18.3203 20.7422 18.0078V6.99218C20.7422 6.67968 20.5078 6.44531 20.1953 6.44531H4.76562Z" fill="#0C3A86"/>
</svg>
