<svg width="37" height="36" viewBox="0 0 37 36" fill="none" xmlns="http://www.w3.org/2000/svg">
<path opacity="0.2" d="M18.5 31.5C25.9558 31.5 32 25.4558 32 18C32 10.5442 25.9558 4.5 18.5 4.5C11.0442 4.5 5 10.5442 5 18C5 25.4558 11.0442 31.5 18.5 31.5Z" fill="#0B63E5"/>
<path d="M18.5 31.5C25.9558 31.5 32 25.4558 32 18C32 10.5442 25.9558 4.5 18.5 4.5C11.0442 4.5 5 10.5442 5 18C5 25.4558 11.0442 31.5 18.5 31.5Z" stroke="#0B63E5" stroke-width="2.5" stroke-linecap="round" stroke-linejoin="round"/>
<path d="M17.375 16.875H18.5V24.75H19.625" stroke="#0B63E5" stroke-width="2.5" stroke-linecap="round" stroke-linejoin="round"/>
<path d="M18.9375 11.8125C18.9375 12.0541 18.7416 12.25 18.5 12.25C18.2584 12.25 18.0625 12.0541 18.0625 11.8125C18.0625 11.5709 18.2584 11.375 18.5 11.375C18.7416 11.375 18.9375 11.5709 18.9375 11.8125Z" fill="#0B63E5" stroke="#0B63E5" stroke-width="2.5"/>
</svg>
