<svg width="36" height="36" viewBox="0 0 36 36" fill="none" xmlns="http://www.w3.org/2000/svg">
<path opacity="0.2" d="M11.0677 23.486C9.73 22.4413 8.64653 21.1068 7.89872 19.5831C7.15091 18.0593 6.75822 16.3859 6.75017 14.6886C6.71648 8.59073 11.6325 3.52175 17.7287 3.37826C20.091 3.32138 22.4113 4.00976 24.3604 5.34576C26.3094 6.68176 27.7884 8.59754 28.5874 10.8214C29.3863 13.0452 29.4648 15.4641 28.8117 17.7351C28.1586 20.006 26.807 22.0136 24.9487 23.4732C24.5393 23.7903 24.2075 24.1964 23.9782 24.6606C23.7489 25.1248 23.6281 25.6351 23.625 26.1529L23.625 27.0001C23.625 27.2984 23.5065 27.5846 23.2955 27.7956C23.0845 28.0065 22.7984 28.1251 22.5 28.1251H13.5C13.2016 28.1251 12.9155 28.0065 12.7045 27.7956C12.4935 27.5846 12.375 27.2984 12.375 27.0001L12.375 26.152C12.3737 25.6375 12.2553 25.1301 12.0288 24.6682C11.8023 24.2063 11.4736 23.8021 11.0677 23.486V23.486Z" fill="#0B63E5"/>
<path d="M12.375 32.625H23.625" stroke="#0B63E5" stroke-width="2.5" stroke-linecap="round" stroke-linejoin="round"/>
<path d="M18 28.125V20.25" stroke="#0B63E5" stroke-width="2.5" stroke-linecap="round" stroke-linejoin="round"/>
<path d="M13.5 15.75L18 20.25L22.5 15.75" stroke="#0B63E5" stroke-width="2.5" stroke-linecap="round" stroke-linejoin="round"/>
<path d="M11.0677 23.486C9.73 22.4413 8.64653 21.1068 7.89872 19.5831C7.15091 18.0593 6.75822 16.3859 6.75017 14.6886C6.71648 8.59073 11.6325 3.52175 17.7287 3.37826C20.091 3.32138 22.4113 4.00976 24.3604 5.34576C26.3094 6.68176 27.7884 8.59754 28.5874 10.8214C29.3863 13.0452 29.4648 15.4641 28.8117 17.7351C28.1586 20.006 26.807 22.0136 24.9487 23.4732C24.5393 23.7903 24.2075 24.1964 23.9782 24.6606C23.7489 25.1248 23.6281 25.6351 23.625 26.1529L23.625 27.0001C23.625 27.2984 23.5065 27.5846 23.2955 27.7956C23.0845 28.0065 22.7984 28.1251 22.5 28.1251H13.5C13.2016 28.1251 12.9155 28.0065 12.7045 27.7956C12.4935 27.5846 12.375 27.2984 12.375 27.0001L12.375 26.152C12.3737 25.6375 12.2553 25.1301 12.0288 24.6682C11.8023 24.2063 11.4736 23.8021 11.0677 23.486V23.486Z" stroke="#0B63E5" stroke-width="2.5" stroke-linecap="round" stroke-linejoin="round"/>
</svg>
