<svg width="36" height="36" viewBox="0 0 36 36" fill="none" xmlns="http://www.w3.org/2000/svg">
<path opacity="0.2" d="M4.65579 10.493C4.55376 10.6661 4.49996 10.8633 4.5 11.0642V24.9358C4.5 25.1354 4.55311 25.3314 4.65389 25.5037C4.75467 25.6761 4.89947 25.8184 5.07346 25.9163L17.4485 32.8772C17.6168 32.972 17.8068 33.0218 18 33.0217L18.0015 33.0217L18.1335 18L4.65581 10.493L4.65579 10.493Z" fill="#0B63E5"/>
<path d="M31.5 24.9358V11.0642C31.5 10.8646 31.4469 10.6686 31.3461 10.4963C31.2453 10.3239 31.1005 10.1816 30.9265 10.0837L18.5515 3.12275C18.3832 3.02803 18.1932 2.97827 18 2.97827C17.8068 2.97827 17.6168 3.02803 17.4485 3.12275L5.07346 10.0837C4.89947 10.1816 4.75467 10.3239 4.65389 10.4963C4.55311 10.6686 4.5 10.8646 4.5 11.0642V24.9358C4.5 25.1354 4.55311 25.3314 4.65389 25.5038C4.75467 25.6761 4.89947 25.8185 5.07346 25.9163L17.4485 32.8773C17.6168 32.972 17.8068 33.0217 18 33.0217C18.1932 33.0217 18.3832 32.972 18.5515 32.8773L30.9265 25.9163C31.1005 25.8185 31.2453 25.6761 31.3461 25.5038C31.4469 25.3314 31.5 25.1354 31.5 24.9358Z" stroke="#0B63E5" stroke-width="2" stroke-linecap="round" stroke-linejoin="round"/>
<path d="M24.8937 21.4469V14.1344L11.25 6.60938" stroke="#0B63E5" stroke-width="2" stroke-linecap="round" stroke-linejoin="round"/>
<path d="M31.3448 10.4944L18.1334 18L4.65576 10.493" stroke="#0B63E5" stroke-width="2" stroke-linecap="round" stroke-linejoin="round"/>
<path d="M18.1335 18L18.0015 33.0217" stroke="#0B63E5" stroke-width="2" stroke-linecap="round" stroke-linejoin="round"/>
</svg>
