<svg width="36" height="37" viewBox="0 0 36 37" fill="none" xmlns="http://www.w3.org/2000/svg">
<path opacity="0.2" d="M29.7269 17.9204L25.8757 10.1255H10.1257L6.27445 17.9204C6.18307 18.1054 6.14432 18.3119 6.16242 18.5175C6.18053 18.723 6.2548 18.9196 6.3771 19.0857L18.0007 34.8755L29.6242 19.0857C29.7466 18.9195 29.8208 18.7229 29.839 18.5174C29.8571 18.3119 29.8183 18.1053 29.7269 17.9204V17.9204ZM18.0007 21.3755C17.4444 21.3755 16.9007 21.2105 16.4382 20.9015C15.9757 20.5925 15.6152 20.1532 15.4023 19.6393C15.1894 19.1254 15.1337 18.5599 15.2422 18.0143C15.3508 17.4687 15.6186 16.9676 16.012 16.5743C16.4053 16.1809 16.9064 15.9131 17.452 15.8045C17.9976 15.696 18.5631 15.7517 19.077 15.9646C19.5909 16.1774 20.0302 16.5379 20.3392 17.0004C20.6483 17.463 20.8132 18.0067 20.8132 18.563C20.8132 18.9323 20.7405 19.2981 20.5991 19.6393C20.4578 19.9805 20.2506 20.2906 19.9895 20.5517C19.7283 20.8129 19.4182 21.0201 19.077 21.1614C18.7358 21.3027 18.3701 21.3755 18.0007 21.3755V21.3755Z" fill="#0B63E5"/>
<path d="M18.0007 21.3755L18.0007 34.8755" stroke="#0B63E5" stroke-width="2.5" stroke-linecap="round" stroke-linejoin="round"/>
<path d="M18.0007 21.3755C19.554 21.3755 20.8132 20.1163 20.8132 18.563C20.8132 17.0097 19.554 15.7505 18.0007 15.7505C16.4474 15.7505 15.1882 17.0097 15.1882 18.563C15.1882 20.1163 16.4474 21.3755 18.0007 21.3755Z" stroke="#0B63E5" stroke-width="2.5" stroke-linecap="round" stroke-linejoin="round"/>
<path d="M10.1257 10.1255V4.50049C10.1257 4.20212 10.2443 3.91597 10.4552 3.70499C10.6662 3.49401 10.9524 3.37549 11.2507 3.37549H24.7507C25.0491 3.37549 25.3352 3.49401 25.5462 3.70499C25.7572 3.91597 25.8757 4.20212 25.8757 4.50049V10.1255" stroke="#0B63E5" stroke-width="2.5" stroke-linecap="round" stroke-linejoin="round"/>
<path d="M10.1257 10.1255L6.27447 17.9204C6.18308 18.1054 6.14432 18.3119 6.16242 18.5175C6.18052 18.723 6.25478 18.9196 6.37709 19.0857L18.0007 34.8755L29.6243 19.0856C29.7466 18.9195 29.8209 18.7229 29.839 18.5174C29.8571 18.3119 29.8183 18.1054 29.7269 17.9204L25.8757 10.1255H10.1257Z" stroke="#0B63E5" stroke-width="2.5" stroke-linecap="round" stroke-linejoin="round"/>
</svg>
