<svg width="16" height="16" viewBox="0 0 16 16" fill="none" xmlns="http://www.w3.org/2000/svg">
<path d="M7.65039 0C3.4256 0 0 3.42407 0 7.64698C0 10.7775 1.88527 13.4676 4.57999 14.6522C4.55949 14.1196 4.57657 13.4778 4.71319 12.8974C4.86005 12.2761 5.69681 8.72916 5.69681 8.72916C5.69681 8.72916 5.4509 8.24098 5.4509 7.52066C5.4509 6.38727 6.10665 5.54064 6.92633 5.54064C7.62307 5.54064 7.95777 6.06296 7.95777 6.68769C7.95777 7.38752 7.51036 8.43216 7.28153 9.40168C7.09027 10.2142 7.68796 10.873 8.49057 10.873C9.93867 10.873 10.9155 9.01251 10.9155 6.80717C10.9155 5.13098 9.78498 3.87811 7.73236 3.87811C5.41333 3.87811 3.96522 5.60892 3.96522 7.54115C3.96522 8.20684 4.16331 8.67795 4.4707 9.03982C4.61072 9.20709 4.63122 9.27537 4.57999 9.46655C4.54242 9.60651 4.46045 9.94448 4.42288 10.081C4.37165 10.2756 4.21454 10.3439 4.04036 10.2722C2.97136 9.83524 2.47271 8.66771 2.47271 7.34997C2.47271 5.17878 4.30676 2.57403 7.94069 2.57403C10.8608 2.57403 12.7837 4.68719 12.7837 6.95397C12.7837 9.95472 11.1136 12.1942 8.6545 12.1942C7.82799 12.1942 7.0527 11.747 6.7863 11.2417C6.7863 11.2417 6.34231 13.0033 6.24668 13.3447C6.08616 13.9352 5.76853 14.5224 5.47822 14.9833C6.18243 15.1909 6.91276 15.2967 7.64697 15.2974C11.8718 15.2974 15.2974 11.8733 15.2974 7.65039C15.2974 3.42748 11.8752 0 7.65039 0Z" fill="#7390F9"/>
</svg>
