<svg width="37" height="37" viewBox="0 0 37 37" fill="none" xmlns="http://www.w3.org/2000/svg">
<path d="M19.1375 27.5668L26.427 32.1852C27.3588 32.7755 28.5157 31.8975 28.2392 30.8098L26.1331 22.5249C26.0738 22.2942 26.0808 22.0514 26.1534 21.8244C26.2259 21.5975 26.361 21.3957 26.5432 21.2421L33.08 15.8014C33.9389 15.0866 33.4956 13.6611 32.3921 13.5895L23.8555 13.0355C23.6255 13.019 23.405 12.9376 23.2196 12.8007C23.0341 12.6638 22.8913 12.477 22.8079 12.2621L19.6241 4.24456C19.5376 4.01647 19.3837 3.8201 19.1829 3.68153C18.9822 3.54296 18.744 3.46875 18.5 3.46875C18.256 3.46875 18.0179 3.54296 17.8171 3.68153C17.6163 3.8201 17.4624 4.01647 17.3759 4.24456L14.1921 12.2621C14.1087 12.477 13.9659 12.6638 13.7805 12.8007C13.595 12.9376 13.3745 13.019 13.1445 13.0355L4.60795 13.5895C3.50444 13.6611 3.06113 15.0866 3.92003 15.8014L10.4568 21.2421C10.639 21.3957 10.7741 21.5975 10.8466 21.8244C10.9192 22.0514 10.9262 22.2942 10.8669 22.5249L8.91374 30.2082C8.58194 31.5134 9.97019 32.567 11.0883 31.8586L17.8625 27.5668C18.053 27.4455 18.2742 27.3811 18.5 27.3811C18.7259 27.3811 18.947 27.4455 19.1375 27.5668V27.5668Z" stroke="#FFAF2E" stroke-width="1.5" stroke-linecap="round" stroke-linejoin="round"/>
</svg>
