<svg width="18" height="18" viewBox="0 0 18 18" fill="none" xmlns="http://www.w3.org/2000/svg">
<path fill-rule="evenodd" clip-rule="evenodd" d="M14.7256 3.40175C13.2489 1.92331 11.2851 1.10877 9.19271 1.10791C4.88154 1.10791 1.3727 4.61647 1.37102 8.92897C1.37041 10.3076 1.73058 11.6531 2.41508 12.8393L1.30542 16.8924L5.4518 15.8047C6.59423 16.4278 7.88052 16.7563 9.1896 16.7567H9.19277C9.19252 16.7567 9.19303 16.7567 9.19277 16.7567C13.5035 16.7567 17.0126 13.2478 17.0144 8.93523C17.0152 6.84525 16.2024 4.88012 14.7256 3.40175ZM9.19274 15.4358H9.19011C8.02361 15.4353 6.87944 15.1219 5.88129 14.5296L5.64392 14.3887L3.1834 15.0341L3.84018 12.6352L3.68559 12.3892C3.03484 11.3541 2.69115 10.1578 2.69165 8.92942C2.69305 5.34504 5.60947 2.42893 9.19538 2.42893C10.9318 2.42947 12.5641 3.1066 13.7915 4.33542C15.0189 5.56424 15.6945 7.19761 15.6938 8.93469C15.6923 12.5194 12.776 15.4358 9.19274 15.4358Z" fill="#0C3A86"/>
<path fill-rule="evenodd" clip-rule="evenodd" d="M12.7586 10.5667C12.5632 10.4689 11.6023 9.9962 11.4232 9.93092C11.244 9.86571 11.1137 9.8331 10.9834 10.0287C10.8532 10.2244 10.4786 10.6646 10.3646 10.7951C10.2506 10.9254 10.1366 10.9418 9.94119 10.8439C9.74577 10.7461 9.11604 10.5398 8.36957 9.87393C7.78855 9.35568 7.39634 8.71573 7.28229 8.52002C7.16831 8.32441 7.27017 8.21865 7.36802 8.12118C7.45593 8.03358 7.56347 7.89293 7.6612 7.77879C7.75889 7.66471 7.79147 7.58311 7.85662 7.45278C7.92177 7.32232 7.88923 7.20818 7.84033 7.11039C7.79147 7.01256 7.40063 6.0506 7.23778 5.65922C7.07909 5.27819 6.91799 5.32982 6.79801 5.32375C6.68419 5.31807 6.55373 5.31689 6.42346 5.31689C6.29319 5.31689 6.08142 5.36582 5.90231 5.56143C5.72318 5.75711 5.21826 6.22996 5.21826 7.19182C5.21826 8.15382 5.91857 9.08314 6.0163 9.21353C6.11399 9.34403 7.3944 11.318 9.3549 12.1645C9.82118 12.3659 10.1852 12.4862 10.469 12.5762C10.9372 12.725 11.3633 12.704 11.7 12.6536C12.0755 12.5975 12.8563 12.1809 13.0192 11.7244C13.182 11.2679 13.182 10.8765 13.1331 10.795C13.0843 10.7135 12.954 10.6646 12.7586 10.5667Z" fill="#0C3A86"/>
</svg>
