<svg width="16" height="11" viewBox="0 0 16 11" fill="none" xmlns="http://www.w3.org/2000/svg">
<path d="M15.6745 1.72945C15.5835 1.39769 15.4055 1.09514 15.1584 0.851906C14.9112 0.608672 14.6035 0.433239 14.2659 0.343069C13.014 0.00550109 8.00554 5.96357e-06 8.00554 5.96357e-06C8.00554 5.96357e-06 2.99788 -0.00548948 1.74517 0.317162C1.40775 0.411482 1.10068 0.589396 0.85345 0.833824C0.60622 1.07825 0.427127 1.38099 0.333365 1.71296C0.00319905 2.94234 1.17129e-06 5.49215 1.17129e-06 5.49215C1.17129e-06 5.49215 -0.00319655 8.05452 0.324572 9.27133C0.508442 9.94411 1.04806 10.4756 1.73397 10.6569C2.99868 10.9945 7.99355 11 7.99355 11C7.99355 11 13.002 11.0055 14.2539 10.6836C14.5917 10.5936 14.8997 10.4186 15.1474 10.1758C15.3952 9.93311 15.5741 9.63107 15.6665 9.2996C15.9975 8.07101 15.9999 5.52198 15.9999 5.52198C15.9999 5.52198 16.0159 2.95882 15.6745 1.72945ZM6.40347 7.85434L6.40747 3.14409L10.5701 5.50314L6.40347 7.85434Z" fill="#3E4581"/>
</svg>
